<?xml version="1.0" encoding="UTF-8"?>
<svg width="377px" height="114px" viewBox="0 0 377 114" version="1.1" xmlns="http://www.w3.org/2000/svg" xmlns:xlink="http://www.w3.org/1999/xlink">
    <title>thpf-logo-full</title>
    <defs>
        <linearGradient x1="63.2865026%" y1="14.7634702%" x2="53.7109831%" y2="44.4152524%" id="linearGradient-1">
            <stop stop-color="#005399" offset="0%"></stop>
            <stop stop-color="#0B4374" stop-opacity="0.86" offset="14%"></stop>
            <stop stop-color="#133656" stop-opacity="0.71" offset="29%"></stop>
            <stop stop-color="#1A2C3E" stop-opacity="0.56" offset="44%"></stop>
            <stop stop-color="#1F252D" stop-opacity="0.4" offset="60%"></stop>
            <stop stop-color="#222023" stop-opacity="0.22" offset="78%"></stop>
            <stop stop-color="#231F20" stop-opacity="0" offset="100%"></stop>
        </linearGradient>
        <linearGradient x1="-3.68569146%" y1="56.0873497%" x2="38.0671802%" y2="50.8506168%" id="linearGradient-2">
            <stop stop-color="#005399" offset="0%"></stop>
            <stop stop-color="#0B4374" stop-opacity="0.86" offset="14%"></stop>
            <stop stop-color="#133656" stop-opacity="0.71" offset="29%"></stop>
            <stop stop-color="#1A2C3E" stop-opacity="0.56" offset="44%"></stop>
            <stop stop-color="#1F252D" stop-opacity="0.4" offset="60%"></stop>
            <stop stop-color="#222023" stop-opacity="0.22" offset="78%"></stop>
            <stop stop-color="#231F20" stop-opacity="0" offset="100%"></stop>
        </linearGradient>
        <linearGradient x1="71.0195379%" y1="73.6841173%" x2="51.7581711%" y2="57.3369027%" id="linearGradient-3">
            <stop stop-color="#005399" offset="0%"></stop>
            <stop stop-color="#0B4374" stop-opacity="0.86" offset="14%"></stop>
            <stop stop-color="#133656" stop-opacity="0.71" offset="29%"></stop>
            <stop stop-color="#1A2C3E" stop-opacity="0.56" offset="44%"></stop>
            <stop stop-color="#1F252D" stop-opacity="0.4" offset="60%"></stop>
            <stop stop-color="#222023" stop-opacity="0.22" offset="78%"></stop>
            <stop stop-color="#231F20" stop-opacity="0" offset="100%"></stop>
        </linearGradient>
    </defs>
    <g id="Page-1" stroke="none" stroke-width="1" fill="none" fill-rule="evenodd">
        <g id="Desktop-HD-Copy" transform="translate(-137.000000, -1109.000000)" fill-rule="nonzero">
            <g id="thpf-logo-full" transform="translate(137.000000, 1109.000000)">
                <path d="M58.0726257,14.4101895 C66.5698324,12.2345468 75.8296089,13.213586 84,18 C84,18 82.2569832,10.9291611 80.0782123,7.01300419 C77.8994413,3.09684727 75.0670391,0.812422395 75.0670391,0.812422395 C64.7178771,-1.14565607 54.150838,0.486075985 45,5.16370786 C45,5.16370786 49.575419,7.66569701 51.8631285,9.29742906 C55.5670391,12.1257646 58.0726257,14.4101895 58.0726257,14.4101895 Z" id="Path" fill="#005399"></path>
                <path d="M22,36.1734417 C16.0425532,29.9945799 12.3191489,21.4308943 12.3191489,12 C12.3191489,12 7.21276596,16.9864499 4.87234043,20.8888889 C2.63829787,24.7913279 2,28.2601626 2,28.2601626 C5.61702128,38.1246612 12.106383,46.3631436 20.5106383,52 C20.5106383,52 20.4042553,46.9051491 20.7234043,44.0867209 C21.2553191,39.4254743 22,36.1734417 22,36.1734417 Z" id="Path" fill="#005399"></path>
                <path d="M58.75,56.5504156 C56.5,64.818973 51.0357143,72.3358434 43,76.9533495 C43,76.9533495 49.8571429,78.9936429 54.3571429,78.9936429 C58.8571429,79.1010267 62.0714286,77.8124204 62.0714286,77.8124204 C68.7142857,69.9733984 72.4642857,60.0940831 73,50 C73,50 68.6071429,52.6845966 66.0357143,53.7584352 C61.8571429,55.5839609 58.75,56.5504156 58.75,56.5504156 Z" id="Path" fill="#005399"></path>
                <path d="M59.6111879,80.2013871 C61.9934568,77.7375814 64.1591558,75.0595318 66,72.2743601 C64.2674408,74.7381658 60.4774675,76.8806055 56.4709243,77.3090935 C52.4643812,77.7375814 48.7826928,76.5592396 46.0755691,74.4167998 C32.2150954,64.2402112 27.9919823,45.2796198 36.8713483,30.1754198 C39.2536172,25.9976624 42.5021657,22.5697588 46.0755691,19.8917092 C42.0690259,16.9994156 37.6293429,14.9640979 32.8648051,14 C30.0493964,16.7851716 27.5588425,19.9988312 25.3931435,23.6409787 C14.5646484,42.1730822 17.9214819,65.0971871 32.2150954,79.8800211 C36.1133536,83.9506566 41.3110312,86.2002183 47.0501336,85.9859743 C52.0312414,85.5574863 56.3626394,83.4150466 59.6111879,80.2013871 Z" id="Path" fill="#2DC3E8"></path>
                <path d="M77.8446751,5.66485507 C80.2102273,8.87137681 80.962903,12.6123188 80.5328026,15.9257246 C78.5973508,32.8134058 64.081462,45.8532609 46.6623955,45.8532609 C41.8237659,45.8532609 37.3077116,44.8913043 33.2217578,43.0742754 C32.6841322,47.884058 33.1142326,52.8007246 34.6195841,57.3967391 C38.4904878,58.3586957 42.4689165,59 46.6623955,59 C68.1674159,59 86.4466832,44.6775362 92.1455137,25.1177536 C93.7583902,19.6666667 93.1132396,14.2155797 89.9950116,9.4057971 C87.3068841,5.3442029 83.3284553,2.67210145 78.812401,1.49637681 C75.4791228,0.641304348 72.1458447,0.106884058 68.7050414,0 C71.7157443,0.320652174 75.3715977,2.56521739 77.8446751,5.66485507 Z" id="Path" fill="#6DC8BF"></path>
                <path d="M4.97485254,23.2505964 C6.59642869,19.6209762 9.51526575,17.0588914 12.650313,15.777849 C28.4336542,9.05237644 47.1358324,14.9238208 55.8923436,29.9760689 C58.2706553,34.1394567 59.6760213,38.5163516 60.2165467,43 C64.7569599,41.0784364 68.7568477,38.196091 72,34.6732244 C70.9189492,30.8300972 69.4054782,27.0937236 67.3514817,23.570857 C56.5409741,4.99574217 34.9199587,-3.54454048 14.8124145,1.36612205 C9.2990556,2.64716444 4.75864239,5.95652397 2.05601547,10.97394 C-0.214191135,15.3508349 -0.538506365,20.1547439 0.758754554,24.5316388 C1.73170024,27.8409983 2.92085608,30.9368507 4.54243223,33.9259497 C3.35327639,31.2571113 3.35327639,26.8802165 4.97485254,23.2505964 Z" id="Path" fill="#C9DC50"></path>
                <path d="M59.6111879,80.2013871 C61.9934568,77.7375814 64.1591558,75.0595318 66,72.2743601 C64.2674408,74.7381658 60.4774675,76.8806055 56.4709243,77.3090935 C52.4643812,77.7375814 48.7826928,76.5592396 46.0755691,74.4167998 C32.2150954,64.2402112 27.9919823,45.2796198 36.8713483,30.1754198 C39.2536172,25.9976624 42.5021657,22.5697588 46.0755691,19.8917092 C42.0690259,16.9994156 37.6293429,14.9640979 32.8648051,14 C30.0493964,16.7851716 27.5588425,19.9988312 25.3931435,23.6409787 C14.5646484,42.1730822 17.9214819,65.0971871 32.2150954,79.8800211 C36.1133536,83.9506566 41.3110312,86.2002183 47.0501336,85.9859743 C52.0312414,85.5574863 56.3626394,83.4150466 59.6111879,80.2013871 Z" id="Path" fill="url(#linearGradient-1)"></path>
                <path d="M77.8446751,5.66485507 C80.2102273,8.87137681 80.962903,12.6123188 80.5328026,15.9257246 C78.5973508,32.8134058 64.081462,45.8532609 46.6623955,45.8532609 C41.8237659,45.8532609 37.3077116,44.8913043 33.2217578,43.0742754 C32.6841322,47.884058 33.1142326,52.8007246 34.6195841,57.3967391 C38.4904878,58.3586957 42.4689165,59 46.6623955,59 C68.1674159,59 86.4466832,44.6775362 92.1455137,25.1177536 C93.7583902,19.6666667 93.1132396,14.2155797 89.9950116,9.4057971 C87.3068841,5.3442029 83.3284553,2.67210145 78.812401,1.49637681 C75.4791228,0.641304348 72.1458447,0.106884058 68.7050414,0 C71.7157443,0.320652174 75.3715977,2.56521739 77.8446751,5.66485507 Z" id="Path" fill="url(#linearGradient-2)"></path>
                <path d="M4.97485254,23.2505964 C6.59642869,19.6209762 9.51526575,17.0588914 12.650313,15.777849 C28.4336542,9.05237644 47.1358324,14.9238208 55.8923436,29.9760689 C58.2706553,34.1394567 59.6760213,38.5163516 60.2165467,43 C64.7569599,41.0784364 68.7568477,38.196091 72,34.6732244 C70.9189492,30.8300972 69.4054782,27.0937236 67.3514817,23.570857 C56.5409741,4.99574217 34.9199587,-3.54454048 14.8124145,1.36612205 C9.2990556,2.64716444 4.75864239,5.95652397 2.05601547,10.97394 C-0.214191135,15.3508349 -0.538506365,20.1547439 0.758754554,24.5316388 C1.73170024,27.8409983 2.92085608,30.9368507 4.54243223,33.9259497 C3.35327639,31.2571113 3.35327639,26.8802165 4.97485254,23.2505964 Z" id="Path" fill="url(#linearGradient-3)" opacity="0.8"></path>
                <polygon id="Path" fill="#535058" points="114.351351 36.0190114 117.054054 36.0190114 117.054054 14.0874525 110.891892 14.0874525 110.783784 17.8136882 107 17.8136882 107.108108 11 130.891892 11 131 17.8136882 127.216216 17.8136882 127.108108 14.0874525 121.054054 14.0874525 121.054054 36.0190114 124.081081 36.0190114 124.081081 39 114.351351 39"></polygon>
                <path d="M128.547445,36.0928962 L130.956204,36.0928962 L130.956204,23.2185792 L128,23.2185792 L128,20.3114754 L134.89781,20.3114754 C134.89781,21.7650273 134.89781,23.6338798 134.678832,25.5027322 L134.788321,25.6065574 C135.554745,22.0765027 137.744526,20 140.591241,20 C141.576642,20 142.562044,20.2076503 143,20.3114754 L142.562044,23.8415301 C142.014599,23.6338798 141.467153,23.5300546 140.591241,23.5300546 C136.868613,23.5300546 135.226277,26.9562842 135.226277,30.2786885 L135.226277,36.0928962 L138.072993,36.0928962 L138.072993,39 L128.547445,39 L128.547445,36.0928962 L128.547445,36.0928962 Z" id="Path" fill="#535058"></path>
                <path d="M144.333333,35.0636704 L147,35.0636704 L147,22.0599251 L144,22.0599251 L144,19.1235955 L151.333333,19.1235955 L151.333333,35.0636704 L154,35.0636704 L154,38 L144.333333,38 L144.333333,35.0636704 L144.333333,35.0636704 Z M149.111111,10 C150.777778,10 152.111111,11.258427 152.111111,12.8314607 C152.111111,14.4044944 150.777778,15.6629213 149.111111,15.6629213 C147.444444,15.6629213 146.111111,14.4044944 146.111111,12.8314607 C146.111111,11.258427 147.444444,10 149.111111,10 Z" id="Shape" fill="#535058"></path>
                <polygon id="Path" fill="#535058" points="155.157895 36.0076336 157.705263 36.0076336 157.705263 13.9923664 154 13.9923664 154 11 162.221053 11 162.221053 36.0076336 165 36.0076336 165 39 155.157895 39"></polygon>
                <polygon id="Path" fill="#535058" points="166.157895 36.0076336 168.705263 36.0076336 168.705263 13.9923664 165 13.9923664 165 11 173.221053 11 173.221053 36.0076336 176 36.0076336 176 39 166.157895 39"></polygon>
                <path d="M177.333333,35.0636704 L180,35.0636704 L180,22.0599251 L177,22.0599251 L177,19.1235955 L184.333333,19.1235955 L184.333333,35.0636704 L187,35.0636704 L187,38 L177.333333,38 L177.333333,35.0636704 L177.333333,35.0636704 Z M182.111111,10 C183.777778,10 185.111111,11.258427 185.111111,12.8314607 C185.111111,14.4044944 183.777778,15.6629213 182.111111,15.6629213 C180.444444,15.6629213 179.111111,14.4044944 179.111111,12.8314607 C179.111111,11.258427 180.444444,10 182.111111,10 Z" id="Shape" fill="#535058"></path>
                <path d="M187,20 L193.663462,20 C193.663462,20 193.663462,27.4347826 193.663462,31.1521739 C193.663462,33.7336957 194.932692,35.6956522 197.365385,35.6956522 C200.115385,35.6956522 202.230769,33.5271739 202.336538,30.0163043 L202.336538,22.8913043 L199.903846,22.8913043 L199.903846,20 L206.461538,20 L206.461538,35.6956522 L209,35.6956522 L209,38.5869565 L202.442308,38.5869565 C202.442308,37.3478261 202.548077,36.0054348 202.759615,34.4565217 L202.653846,34.4565217 C201.913462,37.2445652 198.951923,39 195.990385,39 C191.865385,39 189.538462,36.2119565 189.538462,31.875 C189.538462,28.7771739 189.538462,22.8913043 189.538462,22.8913043 L187,22.8913043 L187,20 Z" id="Path" fill="#535058"></path>
                <path d="M211.535168,36.1086957 L213.675841,36.1086957 L213.675841,23.3043478 L211,23.3043478 L211,20.4130435 L217.850153,20.4130435 C217.850153,21.6521739 217.743119,22.9945652 217.529052,24.5434783 L217.636086,24.5434783 C218.385321,21.7554348 220.954128,20 224.165138,20 C228.018349,20 229.83792,21.8586957 230.159021,24.1304348 L230.266055,24.1304348 C231.122324,21.4456522 233.584098,20 236.795107,20 C241.29052,20 243.431193,22.7880435 243.431193,27.2282609 C243.431193,30.2228261 243.431193,36.1086957 243.431193,36.1086957 L246,36.1086957 L246,39 L237.116208,39 L237.116208,36.1086957 L239.256881,36.1086957 C239.256881,36.1086957 239.256881,30.6358696 239.256881,27.951087 C239.256881,25.3695652 237.972477,23.4076087 235.40367,23.4076087 C232.620795,23.4076087 230.801223,25.576087 230.801223,28.9836957 L230.801223,36.1086957 L233.262997,36.1086957 L233.262997,39 L224.486239,39 L224.486239,36.1086957 L226.626911,36.1086957 L226.626911,28.5706522 C226.626911,25.6793478 225.770642,23.4076087 222.666667,23.4076087 C220.204893,23.4076087 217.957187,25.576087 217.957187,29.0869565 L217.957187,36.1086957 L220.525994,36.1086957 L220.525994,39 L211.535168,39 L211.535168,36.1086957 L211.535168,36.1086957 Z" id="Path" fill="#535058"></path>
                <path d="M272.547445,73.0928962 L274.956204,73.0928962 L274.956204,60.2185792 L272,60.2185792 L272,57.3114754 L278.89781,57.3114754 C278.89781,58.7650273 278.89781,60.6338798 278.678832,62.5027322 L278.788321,62.6065574 C279.554745,59.0765027 281.744526,57 284.591241,57 C285.576642,57 286.562044,57.2076503 287,57.3114754 L286.562044,60.8415301 C286.014599,60.6338798 285.467153,60.5300546 284.591241,60.5300546 C280.868613,60.5300546 279.226277,63.9562842 279.226277,67.2786885 L279.226277,73.0928962 L282.072993,73.0928962 L282.072993,76 L272.547445,76 L272.547445,73.0928962 Z" id="Path" fill="#535058"></path>
                <path d="M345.547445,73.0928962 L347.956204,73.0928962 L347.956204,60.2185792 L345,60.2185792 L345,57.3114754 L351.89781,57.3114754 C351.89781,58.7650273 351.89781,60.6338798 351.678832,62.5027322 L351.788321,62.6065574 C352.554745,59.0765027 354.744526,57 357.591241,57 C358.576642,57 359.562044,57.2076503 360,57.3114754 L359.562044,60.8415301 C359.014599,60.6338798 358.467153,60.5300546 357.591241,60.5300546 C353.868613,60.5300546 352.226277,63.9562842 352.226277,67.2786885 L352.226277,73.0928962 L355.072993,73.0928962 L355.072993,76 L345.547445,76 L345.547445,73.0928962 L345.547445,73.0928962 Z" id="Path" fill="#535058"></path>
                <polygon id="Path" fill="#535058" points="124.37037 73.0076336 126.938272 73.0076336 126.938272 63.6030534 114.847737 63.6030534 114.847737 73.0076336 117.62963 73.0076336 117.62963 76 108 76 108 73.0076336 110.567901 73.0076336 110.567901 50.9923664 108 50.9923664 108 48 117.62963 48 117.62963 50.9923664 114.954733 50.9923664 114.954733 60.2900763 127.045267 60.2900763 127.045267 50.9923664 124.263374 50.9923664 124.263374 48 133.893004 48 133.893004 50.9923664 131.218107 50.9923664 131.218107 73.0076336 134 73.0076336 134 76 124.37037 76"></polygon>
                <path d="M151.666667,74.7301587 C150.333333,75.2592593 147.666667,76 144.555556,76 C137.888889,76 134,72.0846561 134,66.0529101 C134,60.4444444 137.333333,56 143.888889,56 C149.888889,56 153,60.2328042 153,66.0529101 L153,66.5820106 L138.666667,66.5820106 C138.666667,70.2857143 141.555556,72.7195767 145.555556,72.7195767 C148.111111,72.7195767 150.222222,72.0846561 152,71.2380952 L151.666667,74.7301587 Z M148.444444,63.9365079 L148.444444,63.6190476 C148.444444,62.031746 147.333333,59.1746032 143.666667,59.1746032 C140,59.1746032 138.777778,61.7142857 138.666667,64.042328 L148.444444,64.042328 L148.444444,63.9365079 Z" id="Shape" fill="#535058"></path>
                <path d="M343.666667,74.7301587 C342.333333,75.2592593 339.666667,76 336.555556,76 C329.888889,76 326,72.0846561 326,66.0529101 C326,60.4444444 329.333333,56 335.888889,56 C341.888889,56 345,60.2328042 345,66.0529101 L345,66.5820106 L330.666667,66.5820106 C330.666667,70.2857143 333.555556,72.7195767 337.555556,72.7195767 C340.111111,72.7195767 342.222222,72.0846561 344,71.2380952 L343.666667,74.7301587 Z M340.333333,63.9365079 L340.333333,63.6190476 C340.333333,62.031746 339.222222,59.1746032 335.555556,59.1746032 C331.888889,59.1746032 330.666667,61.7142857 330.555556,64.042328 L340.333333,64.042328 L340.333333,63.9365079 Z" id="Shape" fill="#535058"></path>
                <path d="M154.977143,57.6931217 C156.062857,57.1640212 158.56,56 162.794286,56 C168.548571,56 170.394286,58.7513228 170.394286,63.3015873 C170.394286,66.3703704 170.394286,72.5079365 170.394286,72.5079365 L173,72.5079365 L173,75.4708995 L166.594286,75.4708995 C166.594286,74.3068783 166.702857,72.8253968 166.92,71.5555556 L166.811429,71.5555556 C165.942857,73.6719577 164.422857,76 160.297143,76 C155.628571,76 154,72.9312169 154,70.4973545 C154,65.4179894 159.211429,64.7830688 162.468571,64.6772487 L166.485714,64.4656085 L166.485714,62.984127 C166.485714,60.6560847 165.617143,58.962963 162.142857,58.962963 C160.622857,58.962963 159.211429,59.3862434 158.56,59.5978836 L158.56,62.3492063 L154.76,62.3492063 L154.76,57.6931217 L154.977143,57.6931217 Z M161.491429,72.7195767 C164.748571,72.7195767 166.594286,70.2857143 166.594286,67.8518519 L166.594286,67.1111111 C162.251429,67.1111111 158.451429,67.3227513 158.451429,70.1798942 C158.342857,71.5555556 159.537143,72.7195767 161.491429,72.7195767 Z" id="Shape" fill="#535058"></path>
                <path d="M252.873563,57.6931217 C253.965517,57.1640212 256.477011,56 260.735632,56 C266.522989,56 268.37931,58.7513228 268.37931,63.3015873 C268.37931,66.3703704 268.37931,72.5079365 268.37931,72.5079365 L271,72.5079365 L271,75.4708995 L264.557471,75.4708995 C264.557471,74.3068783 264.666667,72.8253968 264.885057,71.5555556 L264.885057,71.5555556 C264.011494,73.6719577 262.482759,76 258.333333,76 C253.637931,76 252,72.9312169 252,70.4973545 C252,65.4179894 257.241379,64.7830688 260.517241,64.6772487 L264.557471,64.4656085 L264.557471,62.984127 C264.557471,60.6560847 263.683908,58.962963 260.189655,58.962963 C258.66092,58.962963 257.241379,59.3862434 256.586207,59.5978836 L256.586207,62.3492063 L252.873563,62.3492063 L252.873563,57.6931217 Z M259.534483,72.7195767 C262.810345,72.7195767 264.666667,70.2857143 264.666667,67.8518519 L264.666667,67.1111111 C260.298851,67.1111111 256.477011,67.3227513 256.477011,70.1798942 C256.367816,71.5555556 257.45977,72.7195767 259.534483,72.7195767 Z" id="Shape" fill="#535058"></path>
                <polygon id="Path" fill="#535058" points="175.06383 73.0076336 177.404255 73.0076336 177.404255 50.9923664 174 50.9923664 174 48 181.446809 48 181.446809 73.0076336 184 73.0076336 184 76 174.957447 76 174.957447 73.0076336"></polygon>
                <path d="M184,56.6725664 L186.900826,56.6725664 L186.900826,52.3185841 L191.090909,52 L191.090909,56.5663717 L196.570248,56.5663717 L196.570248,59.539823 L191.090909,59.539823 C191.090909,59.539823 191.090909,65.5929204 191.090909,68.460177 C191.090909,71.9646018 191.842975,72.8141593 193.77686,72.8141593 C194.85124,72.8141593 196.140496,72.4955752 197,72.0707965 L196.892562,75.0442478 C195.818182,75.5752212 194.206612,76 192.595041,76 C188.512397,76 186.900826,74.4070796 186.900826,70.0530973 C186.900826,67.6106195 186.900826,59.3274336 186.900826,59.3274336 L184,59.3274336 L184,56.6725664 Z" id="Path" fill="#535058"></path>
                <path d="M289,56.6725664 L291.900826,56.6725664 L291.900826,52.3185841 L296.090909,52 L296.090909,56.5663717 L301.570248,56.5663717 L301.570248,59.539823 L296.090909,59.539823 C296.090909,59.539823 296.090909,65.5929204 296.090909,68.460177 C296.090909,71.9646018 296.842975,72.8141593 298.77686,72.8141593 C299.85124,72.8141593 301.140496,72.4955752 302,72.0707965 L301.892562,75.0442478 C300.818182,75.5752212 299.206612,76 297.595041,76 C293.512397,76 291.900826,74.4070796 291.900826,70.0530973 C291.900826,67.6106195 291.900826,59.3274336 291.900826,59.3274336 L289,59.3274336 L289,56.6725664 L289,56.6725664 Z" id="Path" fill="#535058"></path>
                <path d="M198.647887,72.9125475 L200.807512,72.9125475 L200.807512,50.9809886 L198,50.9809886 L198,48 L205.018779,48 L205.018779,56.730038 C205.018779,58.0076046 204.802817,59.391635 204.586854,60.9885932 L204.694836,60.9885932 C205.450704,58.539924 207.610329,56.3041825 211.605634,56.3041825 C216.140845,56.3041825 218.408451,59.1787072 218.408451,63.756654 C218.408451,66.8441065 218.408451,72.9125475 218.408451,72.9125475 L221,72.9125475 L221,75.8935361 L212.037559,75.8935361 L212.037559,72.9125475 L214.197183,72.9125475 C214.197183,72.9125475 214.197183,67.269962 214.197183,64.5019011 C214.197183,61.8403042 212.901408,59.8174905 210.201878,59.8174905 C207.286385,59.8174905 205.126761,62.0532319 205.018779,65.6730038 L205.018779,73.0190114 L207.610329,73.0190114 L207.610329,76 L198.539906,76 L198.539906,72.9125475 L198.647887,72.9125475 Z" id="Path" fill="#535058"></path>
                <path d="M232,72.9125475 L234.624309,72.9125475 L234.624309,50.9809886 L232,50.9809886 L232,48 L241.657459,48 C245.121547,48 246.381215,48.3193916 247.745856,49.1711027 C249.740331,50.3422053 251,52.6844106 251,55.5589354 C251,58.4334601 249.530387,61.2015209 247.430939,62.4790875 C245.856354,63.4372624 244.596685,63.6501901 242.497238,63.6501901 L238.718232,63.6501901 L238.718232,73.0190114 L241.867403,73.0190114 L241.867403,76 L232.104972,76 L232.104972,72.9125475 L232,72.9125475 Z M241.552486,60.5627376 C245.226519,60.5627376 246.696133,58.539924 246.696133,55.6653992 C246.696133,54.1749049 246.066298,52.8973384 245.226519,52.1520913 C244.176796,51.1939163 242.917127,51.0874525 241.027624,51.0874525 L238.61326,51.0874525 L238.61326,60.6692015 L241.552486,60.6692015 L241.552486,60.5627376 Z" id="Shape" fill="#535058"></path>
                <path d="M302.542453,73.0216216 L304.712264,73.0216216 L304.712264,60.2864865 L302,60.2864865 L302,57.4108108 L308.943396,57.4108108 C308.943396,58.6432432 308.834906,59.9783784 308.617925,61.5189189 L308.726415,61.5189189 C309.485849,59.1567568 311.65566,57 315.669811,57 C320.226415,57 322.396226,59.772973 322.396226,64.1891892 C322.396226,67.1675676 322.396226,73.0216216 322.396226,73.0216216 L325,73.0216216 L325,75.8972973 L315.995283,75.8972973 L315.995283,73.0216216 L318.165094,73.0216216 C318.165094,73.0216216 318.165094,67.5783784 318.165094,64.9081081 C318.165094,62.3405405 316.971698,60.3891892 314.259434,60.3891892 C311.330189,60.3891892 309.051887,62.5459459 309.051887,66.0378378 L309.051887,73.1243243 L311.65566,73.1243243 L311.65566,76 L302.542453,76 L302.542453,73.0216216 Z" id="Path" fill="#535058"></path>
                <path d="M372.275168,61.8510638 L372.167785,59.5106383 C371.52349,59.1914894 370.66443,58.8723404 368.946309,58.8723404 C367.013423,58.8723404 365.080537,59.2978723 365.080537,61.212766 C365.080537,62.7021277 366.369128,63.1276596 367.550336,63.3404255 L372.275168,64.2978723 C374.422819,64.7234043 377,65.6808511 377,69.6170213 C377,74.7234043 372.597315,76 368.302013,76 C364.973154,76 362.503356,75.2553191 361.214765,74.8297872 L361.214765,69.7234043 L364.973154,69.7234043 L365.080537,72.2765957 C365.832215,72.4893617 367.120805,73.0212766 369.268456,73.0212766 C371.201342,73.0212766 373.134228,72.2765957 373.134228,70.3617021 C373.134228,68.7659574 371.95302,68.2340426 370.342282,67.9148936 L367.228188,67.3829787 C364.221477,66.8510638 361,65.6808511 361,62.0638298 C361,57.5957447 364.973154,56 369.268456,56 C372.489933,56 374.852349,56.8510638 376.033557,57.2765957 L376.14094,61.9574468 L372.275168,61.9574468 L372.275168,61.8510638 Z" id="Path" fill="#535058"></path>
                <polygon id="Path" fill="#535058" points="107.219653 109.687023 109.965318 109.687023 110.075145 87.9923664 107 87.9923664 107 85 125.890173 85 126 92.3740458 122.375723 92.3740458 122.156069 87.9923664 114.358382 87.9923664 114.248555 96.8625954 122.595376 96.8625954 122.595376 100.389313 114.248555 100.389313 114.138728 109.687023 117.433526 109.687023 117.433526 113 107.109827 113 107.109827 109.687023"></polygon>
                <path d="M135.859459,93 C142.740541,93 145,98.3684211 145,103.105263 C145,108.578947 141.713514,113 135.345946,113 C128.67027,113 126,108.263158 126,103.421053 C126.102703,97.2105263 130.108108,93 135.859459,93 Z M135.551351,109.631579 C139.248649,109.631579 140.789189,106.473684 140.789189,102.789474 C140.789189,98.4736842 138.632432,96.5789474 135.756757,96.5789474 C131.751351,96.5789474 130.313514,99.9473684 130.313514,103.421053 C130.313514,106.473684 131.854054,109.631579 135.551351,109.631579 Z" id="Shape" fill="#535058"></path>
                <path d="M146.219048,94 L153.119048,94 C153.009524,97.8709677 153.009524,101.741935 153.009524,105.72043 C153.009524,108.516129 154.32381,110.451613 156.952381,110.451613 C159.8,110.451613 162.1,108.193548 162.1,104.537634 L162.209524,97.1182796 L159.580952,97.1182796 L159.580952,94 L166.480952,94 L166.371429,110.451613 L169,110.451613 L169,113.569892 L162.1,113.569892 C162.1,112.27957 162.209524,110.88172 162.428571,109.268817 L162.319048,109.268817 C161.552381,112.172043 158.485714,114 155.309524,114 C151.038095,114 148.519048,111.096774 148.519048,106.473118 C148.519048,103.247312 148.519048,100.129032 148.628571,97.0107527 L146,97.0107527 L146,94 L146.219048,94 Z" id="Path" fill="#535058"></path>
                <path d="M169.431925,109.88172 L171.699531,109.88172 L171.807512,96.4408602 L169,96.4408602 L169,93.4301075 L176.018779,93.4301075 C176.018779,94.7204301 175.910798,96.1182796 175.694836,97.7311828 L175.802817,97.7311828 C176.558685,95.2580645 178.826291,93 182.713615,93 C187.356808,93 189.516432,95.9032258 189.516432,100.526882 C189.516432,103.645161 189.408451,106.763441 189.408451,109.88172 L192,109.88172 L192,113 L182.929577,113 L182.929577,109.88172 L185.197183,109.88172 C185.197183,106.978495 185.305164,104.075269 185.305164,101.27957 C185.305164,98.483871 184.00939,96.5483871 181.309859,96.5483871 C178.394366,96.5483871 176.234742,98.8064516 176.126761,102.462366 L176.018779,109.88172 L178.610329,109.88172 L178.610329,113 L169.431925,113 L169.431925,109.88172 Z" id="Path" fill="#535058"></path>
                <path d="M214,112.580524 L207.357143,112.580524 C207.357143,111.217228 207.571429,109.749064 207.678571,108.700375 L207.678571,108.700375 C206.714286,111.217228 204.571429,113 201.142857,113 C196.428571,113 193,109.644195 193,103.981273 C193,97.6891386 196.857143,93.0749064 203.5,93.0749064 C204.892857,93.0749064 206.178571,93.2846442 207.357143,93.494382 L207.464286,88.0411985 L203.928571,88.0411985 L203.928571,85 L211.535714,85 L211.428571,109.539326 L214,109.539326 L214,112.580524 Z M207.25,97.0599251 C206.392857,96.5355805 205.107143,96.2209738 203.5,96.2209738 C199.642857,96.2209738 197.5,99.4719101 197.5,103.247191 C197.5,106.812734 199.107143,109.434457 202.214286,109.434457 C205.642857,109.434457 207.25,106.707865 207.25,102.303371 L207.25,97.0599251 Z" id="Shape" fill="#535058"></path>
                <path d="M215.873563,95.6753927 C216.965517,95.1518325 219.477011,94 223.735632,94 C229.632184,94 231.488506,96.8272251 231.488506,101.329843 C231.488506,104.366492 231.37931,107.403141 231.37931,110.544503 L234,110.544503 L234,113.581152 L227.666667,113.581152 C227.666667,112.324607 227.775862,110.858639 227.994253,109.602094 L227.885057,109.602094 C227.011494,111.801047 225.482759,114 221.333333,114 C216.528736,114 215,110.963351 215,108.554974 C215,103.528796 220.350575,102.900524 223.517241,102.691099 L227.557471,102.481675 L227.557471,101.015707 C227.557471,98.7120419 226.683908,97.0366492 223.189655,97.0366492 C221.66092,97.0366492 220.241379,97.4554974 219.586207,97.6649215 L219.586207,100.492147 L215.764368,100.492147 L215.764368,95.6753927 L215.873563,95.6753927 Z M222.534483,110.649215 C225.810345,110.649215 227.666667,108.240838 227.666667,105.832461 L227.666667,105.099476 C223.189655,105.099476 219.367816,105.308901 219.367816,108.136126 C219.367816,109.497382 220.45977,110.649215 222.534483,110.649215 Z" id="Shape" fill="#535058"></path>
                <path d="M233,93.7619048 L235.95935,93.7619048 L236.065041,89.3246753 L240.292683,89 L240.186992,93.7619048 L245.682927,93.7619048 L245.682927,96.9004329 L240.186992,96.9004329 C240.186992,100.038961 240.081301,103.177489 240.081301,106.099567 C240.081301,109.670996 240.821138,110.645022 242.829268,110.645022 C243.886179,110.645022 245.154472,110.212121 246,109.887446 L245.894309,113.025974 C244.837398,113.5671 243.252033,114 241.666667,114 C237.650407,114 235.95935,112.376623 235.95935,107.939394 C235.95935,105.450216 236.065041,100.363636 236.065041,97.008658 L233.105691,97.008658 L233.105691,93.7619048 L233,93.7619048 Z" id="Path" fill="#535058"></path>
                <path d="M248.333333,109.86194 L251,109.86194 L251.111111,96.3358209 L248,96.3358209 L248,93.3059701 L255.444444,93.3059701 L255.333333,109.86194 L258,109.86194 L258,113 L248.222222,113 L248.222222,109.86194 L248.333333,109.86194 Z M253.222222,84 C254.888889,84 256.222222,85.2985075 256.222222,86.9216418 C256.222222,88.5447761 254.888889,89.8432836 253.222222,89.8432836 C251.555556,89.8432836 250.222222,88.5447761 250.222222,86.9216418 C250.222222,85.2985075 251.555556,84 253.222222,84 Z" id="Shape" fill="#535058"></path>
                <path d="M267.859459,93 C274.740541,93 277,98.3684211 277,103.105263 C277,108.578947 273.816216,113 267.345946,113 C260.67027,113 258,108.263158 258,103.421053 C258.102703,97.2105263 262.108108,93 267.859459,93 Z M267.551351,109.631579 C271.248649,109.631579 272.789189,106.473684 272.789189,102.789474 C272.789189,98.4736842 270.632432,96.5789474 267.756757,96.5789474 C263.751351,96.5789474 262.313514,99.9473684 262.313514,103.421053 C262.313514,106.473684 263.854054,109.631579 267.551351,109.631579 Z" id="Shape" fill="#535058"></path>
                <path d="M278.431925,109.88172 L280.699531,109.88172 L280.807512,96.4408602 L278,96.4408602 L278,93.4301075 L285.018779,93.4301075 C285.018779,94.7204301 284.910798,96.1182796 284.694836,97.7311828 L284.802817,97.7311828 C285.558685,95.2580645 287.826291,93 291.713615,93 C296.356808,93 298.516432,95.9032258 298.516432,100.526882 C298.516432,103.645161 298.408451,106.763441 298.408451,109.88172 L301,109.88172 L301,113 L291.929577,113 L291.929577,109.88172 L294.197183,109.88172 C294.197183,106.978495 294.305164,104.075269 294.305164,101.27957 C294.305164,98.483871 293.00939,96.5483871 290.309859,96.5483871 C287.394366,96.5483871 285.234742,98.8064516 285.126761,102.462366 L285.018779,109.88172 L287.71831,109.88172 L287.71831,113 L278.647887,113 L278.647887,109.88172 L278.431925,109.88172 Z" id="Path" fill="#535058"></path>
            </g>
        </g>
    </g>
</svg>